<svg xmlns="http://www.w3.org/2000/svg"> 
  <symbol id="cart"  viewBox = "0 0 13 13"  fill = "none">
    <path d="M2.6443 1.77779H12.4445L11.1111 6.44446H3.36226M11.7778 9.11112H3.77779L2.44446 0.444458H0.444458M4.44446 11.7778C4.44446 12.146 4.14598 12.4445 3.77779 12.4445C3.4096 12.4445 3.11112 12.146 3.11112 11.7778C3.11112 11.4096 3.4096 11.1111 3.77779 11.1111C4.14598 11.1111 4.44446 11.4096 4.44446 11.7778ZM11.7778 11.7778C11.7778 12.146 11.4793 12.4445 11.1111 12.4445C10.7429 12.4445 10.4445 12.146 10.4445 11.7778C10.4445 11.4096 10.7429 11.1111 11.1111 11.1111C11.4793 11.1111 11.7778 11.4096 11.7778 11.7778Z" stroke="#F4EBCE" stroke-width="0.888889" stroke-linecap="round" stroke-linejoin="round"/>
  </symbol>
</svg>




