<svg width="14" height="14" viewBox="0 0 14 14" fill="none" xmlns="http://www.w3.org/2000/svg">
  <symbol id="plus">
<path d="M14 5.66474V8.3353C14 8.53634 13.8371 8.69947 13.6358 8.69947H8.69947V13.6358C8.69947 13.8371 8.53634 14 8.3353 14H5.66474C5.46382 14 5.30057 13.8371 5.30057 13.6358V8.69947H0.364169C0.162972 8.69947 0 8.53634 0 8.3353V5.66474C0 5.46366 0.162972 5.30057 0.364169 5.30057H5.30057V0.364169C5.30057 0.162891 5.46378 0 5.66474 0H8.3353C8.53634 0 8.69947 0.162891 8.69947 0.364169V5.30057H13.6358C13.8371 5.30057 14 5.46366 14 5.66474Z" fill="#F4EBCE"/>
  </symbol>
</svg>
