<svg xmlns="http://www.w3.org/2000/svg">  
  <symbol id="register" viewBox="0 0 12 12">
<path d="M8.62452 9.74946C8.52507 9.74946 8.42969 9.78896 8.35937 9.85928C8.28905 9.92961 8.24954 10.025 8.24954 10.1244V11.2494H0.749958V2.24987H2.24987V2.62485C2.24987 2.7243 2.28938 2.81968 2.3597 2.89C2.43003 2.96033 2.5254 2.99983 2.62485 2.99983H6.37464C6.47409 2.99983 6.56947 2.96033 6.63979 2.89C6.71012 2.81968 6.74962 2.7243 6.74962 2.62485V2.24987H8.24954V2.62485C8.24954 2.7243 8.28905 2.81968 8.35937 2.89C8.42969 2.96033 8.52507 2.99983 8.62452 2.99983C8.72397 2.99983 8.81935 2.96033 8.88967 2.89C8.95999 2.81968 8.9995 2.7243 8.9995 2.62485V1.8749C8.9995 1.77544 8.95999 1.68007 8.88967 1.60974C8.81935 1.53942 8.72397 1.49992 8.62452 1.49992H6.74962V1.12494C6.74962 0.826585 6.6311 0.540454 6.42014 0.329487C6.20917 0.11852 5.92304 0 5.62469 0H3.37481C3.07646 0 2.79033 0.11852 2.57936 0.329487C2.36839 0.540454 2.24987 0.826585 2.24987 1.12494V1.49992H0.374979C0.275528 1.49992 0.180151 1.53942 0.109829 1.60974C0.0395063 1.68007 0 1.77544 0 1.8749V11.6244C0 11.7238 0.0395063 11.8192 0.109829 11.8895C0.180151 11.9598 0.275528 11.9993 0.374979 11.9993H8.62452C8.72397 11.9993 8.81935 11.9598 8.88967 11.8895C8.95999 11.8192 8.9995 11.7238 8.9995 11.6244V10.1244C8.9995 10.025 8.95999 9.92961 8.88967 9.85928C8.81935 9.78896 8.72397 9.74946 8.62452 9.74946ZM2.99983 1.12494C2.99983 1.02549 3.03934 0.930109 3.10966 0.859787C3.17998 0.789464 3.27536 0.749958 3.37481 0.749958H5.62469C5.72414 0.749958 5.81951 0.789464 5.88984 0.859787C5.96016 0.930109 5.99967 1.02549 5.99967 1.12494V2.24987H2.99983V1.12494ZM11.8898 4.60924L10.3899 3.10933C10.3551 3.07441 10.3137 3.0467 10.2682 3.0278C10.2226 3.00889 10.1738 2.99916 10.1244 2.99916C10.0751 2.99916 10.0263 3.00889 9.98072 3.0278C9.93516 3.0467 9.89378 3.07441 9.85895 3.10933L5.3592 7.60908C5.3244 7.64396 5.29682 7.68537 5.27803 7.73092C5.25924 7.77647 5.24962 7.82528 5.24971 7.87456V9.37448C5.24971 9.47393 5.28921 9.56931 5.35954 9.63963C5.42986 9.70995 5.52524 9.74946 5.62469 9.74946H7.1246C7.17388 9.74954 7.22269 9.73992 7.26824 9.72113C7.3138 9.70234 7.3552 9.67476 7.39009 9.63996L11.8898 5.14021C11.9248 5.10538 11.9525 5.064 11.9714 5.01845C11.9903 4.97289 12 4.92405 12 4.87473C12 4.82541 11.9903 4.77657 11.9714 4.73101C11.9525 4.68545 11.9248 4.64407 11.8898 4.60924ZM5.99967 8.9995V8.0298L10.1244 3.90503L11.0941 4.87473L6.96936 8.9995H5.99967ZM4.49975 9.37448C4.49975 9.47393 4.46024 9.56931 4.38992 9.63963C4.3196 9.70995 4.22422 9.74946 4.12477 9.74946H2.62485C2.5254 9.74946 2.43003 9.70995 2.3597 9.63963C2.28938 9.56931 2.24987 9.47393 2.24987 9.37448C2.24987 9.27503 2.28938 9.17965 2.3597 9.10933C2.43003 9.039 2.5254 8.9995 2.62485 8.9995H4.12477C4.22422 8.9995 4.3196 9.039 4.38992 9.10933C4.46024 9.17965 4.49975 9.27503 4.49975 9.37448ZM4.49975 7.1246C4.49975 7.22405 4.46024 7.31943 4.38992 7.38975C4.3196 7.46008 4.22422 7.49958 4.12477 7.49958H2.62485C2.5254 7.49958 2.43003 7.46008 2.3597 7.38975C2.28938 7.31943 2.24987 7.22405 2.24987 7.1246C2.24987 7.02515 2.28938 6.92977 2.3597 6.85945C2.43003 6.78913 2.5254 6.74962 2.62485 6.74962H4.12477C4.22422 6.74962 4.3196 6.78913 4.38992 6.85945C4.46024 6.92977 4.49975 7.02515 4.49975 7.1246ZM6.37464 5.24971H2.62485C2.5254 5.24971 2.43003 5.2102 2.3597 5.13988C2.28938 5.06956 2.24987 4.97418 2.24987 4.87473C2.24987 4.77528 2.28938 4.6799 2.3597 4.60958C2.43003 4.53926 2.5254 4.49975 2.62485 4.49975H6.37464C6.47409 4.49975 6.56947 4.53926 6.63979 4.60958C6.71012 4.6799 6.74962 4.77528 6.74962 4.87473C6.74962 4.97418 6.71012 5.06956 6.63979 5.13988C6.56947 5.2102 6.47409 5.24971 6.37464 5.24971Z" fill="#F4EBCE"/>
</symbol>
</svg>
